<?xml version="1.0" standalone="no"?>
<!DOCTYPE svg PUBLIC "-//W3C//DTD SVG 20010904//EN"
 "http://www.w3.org/TR/2001/REC-SVG-20010904/DTD/svg10.dtd">
<svg version="1.0" xmlns="http://www.w3.org/2000/svg"
 width="512.000000pt" height="512.000000pt" viewBox="0 0 512.000000 512.000000"
 preserveAspectRatio="xMidYMid meet">

<g transform="translate(0.000000,512.000000) scale(0.100000,-0.100000)"
fill="#ff6600" stroke="none">
<path d="M1756 5098 c-16 -14 -79 -137 -160 -308 l-134 -285 -260 -75 -259
-75 -108 -125 c-60 -69 -113 -127 -117 -131 -4 -3 -168 -29 -364 -59 l-357
-54 6 -120 c13 -279 101 -485 257 -600 120 -89 210 -107 623 -130 148 -7 270
-16 273 -18 2 -2 101 -292 220 -643 168 -497 214 -643 207 -659 -5 -12 -128
-290 -273 -619 l-264 -597 -31 0 c-51 0 -145 -28 -225 -67 -131 -64 -233 -191
-269 -336 -14 -59 -2 -113 33 -146 53 -50 72 -51 755 -50 468 0 630 3 613 11
-29 14 -37 48 -22 92 15 46 53 82 125 117 120 60 205 174 205 275 0 45 -9 70
-61 169 -107 205 -135 319 -126 509 4 67 18 177 32 246 46 225 43 327 -10 436
-38 77 -82 115 -195 169 -159 77 -221 157 -228 297 l-4 76 55 13 c31 6 73 21
93 33 36 20 51 37 134 152 43 59 117 106 220 138 l75 24 3 171 c1 94 6 171 10
171 14 0 260 -214 370 -323 100 -99 119 -123 157 -202 50 -103 93 -227 125
-365 53 -232 99 -322 234 -456 66 -66 86 -79 281 -176 116 -57 235 -120 265
-139 274 -177 430 -415 486 -743 9 -50 17 -92 18 -94 9 -8 111 35 142 61 53
44 74 96 74 188 0 94 -22 181 -93 369 -62 164 -108 323 -133 455 -20 110 -20
300 -1 371 l15 52 -90 88 c-49 49 -142 148 -206 219 -279 311 -384 408 -785
728 -272 217 -431 367 -525 495 -86 117 -123 187 -204 384 -155 381 -464 1035
-512 1082 -31 32 -57 33 -90 4z"/>
<path d="M4547 2982 c-22 -24 -21 -48 3 -157 28 -131 43 -306 35 -413 -3 -52
-8 -99 -11 -105 -2 -7 26 -26 64 -44 79 -37 102 -69 102 -138 0 -41 -5 -52
-38 -85 -50 -51 -95 -59 -167 -32 l-53 21 -37 -56 -38 -57 7 -80 c13 -156 48
-281 174 -632 53 -144 72 -241 72 -356 0 -158 -44 -273 -140 -367 -70 -69
-157 -114 -276 -144 l-90 -22 -24 -54 c-54 -123 -201 -217 -385 -244 -16 -3
107 -4 275 -3 343 2 362 5 508 77 230 113 373 353 389 654 9 180 -28 347 -106
476 l-39 64 34 38 c67 74 151 195 196 283 173 337 153 676 -63 1039 -84 141
-195 282 -253 322 -56 38 -113 44 -139 15z"/>
<path d="M2875 1082 c-115 -40 -197 -111 -250 -219 -16 -33 -57 -186 -105
-389 -44 -184 -86 -349 -93 -367 -13 -31 -40 -61 -82 -92 -18 -13 21 -14 335
-13 348 2 350 2 120 8 -129 3 -243 9 -253 14 -42 20 -27 110 26 150 53 39 92
46 251 46 l151 1 -67 33 c-216 108 -295 234 -263 419 50 289 275 425 601 362
43 -8 79 -13 81 -11 6 6 -108 45 -177 61 -88 20 -212 19 -275 -3z"/>
</g>
</svg>
